HIERARCHY
ROOT Spine
{
    OFFSET 0.0 0.0 -0.0
    CHANNELS 6 Xposition Yposition Zposition Zrotation Xrotation Yrotation
    JOINT ShoulderCenter
    {
        OFFSET 0.0 32.61629867553711 0.0
        CHANNELS 3 Zrotation Xrotation Yrotation
        JOINT LeftShoulder
        {
            OFFSET 18.403051376342773 0.0 0.0
            CHANNELS 3 Zrotation Xrotation Yrotation
            JOINT LeftElbow
            {
                OFFSET 32.475563049316406 0.0 0.0
                CHANNELS 3 Zrotation Xrotation Yrotation
                JOINT LeftHand
                {
                    OFFSET 33.721839904785156 0.0 0.0
                    CHANNELS 3 Zrotation Xrotation Yrotation
                    End Site
                    {
                        OFFSET 13.488736152648926 0.0 0.0
                    }
                }
            }
        }
        JOINT RightShoulder
        {
            OFFSET -18.403051376342773 0.0 0.0
            CHANNELS 3 Zrotation Xrotation Yrotation
            JOINT RightElbow
            {
                OFFSET -32.475563049316406 0.0 0.0
                CHANNELS 3 Zrotation Xrotation Yrotation
                JOINT RightHand
                {
                    OFFSET -33.721839904785156 0.0 0.0
                    CHANNELS 3 Zrotation Xrotation Yrotation
                    End Site
                    {
                        OFFSET -13.488736152648926 0.0 0.0
                    }
                }
            }
        }
        End Site
        {
            OFFSET 0.0 13.046518325805664 0.0
        }
    }
    JOINT LeftHip
    {
        OFFSET 17.1120075720797 -17.1120075720797 0.0
        CHANNELS 3 Zrotation Xrotation Yrotation
        JOINT LeftKnee
        {
            OFFSET 0.0 -42.4261474609375 0.0
            CHANNELS 3 Zrotation Xrotation Yrotation
            JOINT LeftFoot
            {
                OFFSET 0.0 -47.43170928955078 0.0
                CHANNELS 3 Zrotation Xrotation Yrotation
                End Site
                {
                    OFFSET 0.0 0.0 18.972684860229492
                }
            }
        }
    }
    JOINT RightHip
    {
        OFFSET -17.1120075720797 -17.1120075720797 0.0
        CHANNELS 3 Zrotation Xrotation Yrotation
        JOINT RightKnee
        {
            OFFSET 0.0 -42.4261474609375 0.0
            CHANNELS 3 Zrotation Xrotation Yrotation
            JOINT RightFoot
            {
                OFFSET 0.0 -47.43170928955078 0.0
                CHANNELS 3 Zrotation Xrotation Yrotation
                End Site
                {
                    OFFSET 0.0 0.0 18.972684860229492
                }
            }
        }
    }
}
MOTION
Frames: 12
Frame Time: 0.03333333333333333
-2.0 12.399999618530273 21.600000381469727 -5.306365079329498 4.582483293683675 -61.31428431512044 -6.318027006333457e-07 5.20978705271016e-08 -39.29798064358742 161.72326016902852 -9.864342322605536 -123.58200182142885 -4.360586472630193e-07 1.0627749708125577e-06 83.1175563141049 -1.1927080055488188e-15 6.620859447075238e-32 -6.3611093629270335e-15 -152.1539649967287 14.604322631854497 -163.27176809181833 -4.322621745989816e-08 8.535454417039681e-07 -98.51144087123286 7.95138670365879e-16 -2.2069531490250793e-32 -3.180554681463516e-15 7.721606455567368 15.46788552828171 -52.316593440528784 -2.124306924792954 11.696256130981439 -21.525492757540533 3.975693351829395e-16 -7.951386703658791e-16 -7.156248033292912e-15 11.5334174258388 -22.50633617827083 -25.090850751777065 -12.823103178705216 10.182169150980743 22.178048307455793 0.0 0.0 -5.8641476939483585e-15
-2.0 12.600000381469727 21.19999885559082 -5.482183701040003 5.107106793763669 -58.25957996334596 2.3340241736375e-07 3.4259567799117927e-07 -36.94723834875225 161.7123581652164 -9.485991701274386 -123.19630868749542 2.252771483861847e-06 -1.020940560193349e-06 82.31411037177564 -1.5902773407317584e-15 -3.1805546814635168e-15 -4.4139062980501586e-32 -151.1933832091909 14.60353640710296 -163.29117211988395 -1.5590827835626505e-06 4.861124905186817e-07 -98.81486576035336 -3.975693351829396e-16 3.975693351829396e-16 1.3793457181406746e-33 9.706159555867673 14.386538188838392 -54.18864256912483 -2.508843648221933 11.361725743173357 -21.893143215335026 1.5902773407317588e-15 -1.9310840053969444e-32 -1.391492673140289e-15 11.342295181720639 -22.281257250287133 -25.144524519613302 -12.164928298740552 9.636554233089322 21.37436459854284 -7.951386703658792e-16 -7.951386703658792e-16 1.3914926731402886e-15
-1.899999976158142 12.700000762939453 20.900001525878906 -5.290081232775351 4.743442746536113 -55.015967544861766 7.548315133063547e-07 2.8565882627855987e-07 -35.25039152426149 161.71007341503477 -8.760640532525303 -124.30944241949472 1.2193247114413254e-06 -1.618179797824756e-07 82.20280415203466 0.0 0.0 0.0 -151.14620980746358 13.894946043047034 -164.83510336497983 -1.449210700942146e-06 4.5299998376983297e-07 -98.26078521027632 1.5902773407317584e-15 -1.987846675914698e-16 2.758691436281349e-33 10.279214360857855 13.397197832718742 -54.78345340985221 -2.2201552681650636 11.52406954406775 -23.111792597234693 3.975693351829396e-16 7.951386703658792e-16 2.9817700138720468e-15 10.054450965138463 -21.925361592401657 -24.944750331787414 -11.747399828158539 9.214119853780712 21.21758613991685 1.5902773407317584e-15 -1.5902773407317582e-15 8.547740706433202e-15
-1.7000000476837158 12.899999618530273 20.5 -5.290080401539894 4.568519439742776 -50.68594877658156 -4.001503279401019e-07 -2.0307981915537366e-07 -32.96168487113412 161.16997631134274 -8.234749561060944 -125.21126731339598 9.673957799592446e-07 -1.6725358166537406e-06 81.57027541574216 2.3854160110976376e-15 -3.1805546814635168e-15 6.620859447075238e-32 -151.28636996021496 13.304077887168745 -165.6233476943155 6.268858167278971e-07 1.5287560232286077e-06 -97.96459350113015 -1.5405811738338909e-15 0.0 0.0 11.474522559048044 12.049167378895614 -56.065175418992936 -1.9603412456612734 11.66505693518159 -24.761399967618132 1.1927080055488188e-15 -7.951386703658792e-16 -5.764755360152624e-15 8.594899059730812 -21.67659819534536 -25.16649174074385 -11.371634469608326 9.067166236856496 22.243358503853415 1.5902773407317582e-15 -7.951386703658791e-16 -1.789062008323228e-15
-1.7000000476837158 13.0 20.100000381469727 -5.290080948610977 4.043245967413784 -46.20827526151626 6.738650131088966e-07 8.039551683641771e-08 -30.579227273682797 160.26013309405698 -7.495028381203773 -125.89426402765304 2.8577087609143367e-06 -3.923622405332169e-06 79.48412832269506 1.5902773407317584e-15 0.0 0.0 -151.53142570320347 12.61117950661356 -166.96953904142657 -3.4483871638038084e-06 4.041014095941831e-07 -97.46495118508962 1.9878466759146977e-16 9.939233379573489e-17 -7.951386703658791e-16 12.9889656436631 10.367221961189278 -58.765627129413176 -3.0386968360065745 11.290960534926587 -25.575170380516138 -7.951386703658792e-16 1.793149433582877e-32 -2.5842006786891076e-15 6.903548242163225 -20.945110762228843 -25.377421566666317 -10.975112731020296 8.740543579515949 22.610264031669203 -1.5902773407317584e-15 -2.896626008095417e-32 2.087239009710433e-15
-1.600000023841858 13.09999942779541 19.69999885559082 -5.290080979697085 3.1663158403812055 -41.0491614293734 3.540343614442541e-07 -2.3926222132061806e-07 -27.60218171499049 158.8444893647215 -7.937595347546748 -126.73921930233355 -2.397219925953494e-07 -1.6233648457757298e-06 78.45726162705594 0.0 3.1805546814635168e-15 0.0 -152.2669683150517 11.831638921608773 -167.01139797811018 3.889841791031587e-06 1.009010654453083e-06 -97.00420381590313 7.951386703658794e-16 -1.9878466759146985e-16 1.3793457181406746e-33 14.137406259391609 8.407826220277931 -61.298368314178134 -4.177654968901467 11.317652102194318 -27.676839317960823 -3.578124016646457e-15 1.5902773407317584e-15 -2.3854160110976376e-15 4.928106040856786 -19.53570190582343 -24.728763302036718 -10.246315170267579 8.019005225364461 21.749927651490538 0.0 0.0 -3.975693351829396e-16
-1.7000000476837158 13.199999809265137 19.100000381469727 -5.448652771838418 3.5055825147992863 -35.121405982991895 5.447156130750313e-08 6.007601708512482e-07 -24.97268038100517 158.96756294530724 -7.291330845291488 -126.79977571171565 1.4197775965855437e-06 -2.2993871900297163e-06 76.51392955850343 4.4139062980501586e-32 -3.180554681463516e-15 1.590277340731758e-15 -151.62451272245193 11.637267637667156 -167.32099337440508 1.278939713894654e-06 1.2318455602051915e-06 -96.76783766504887 0.0 3.1805546814635168e-15 0.0 16.175896030203468 5.611707183384864 -61.453643193397035 -4.506254909800266 11.002173236169474 -29.622928369634238 1.5902773407317584e-15 1.5902773407317584e-15 -2.1866313435061676e-15 3.686920579522255 -18.871364035174295 -24.054784475831582 -9.595392199098802 7.756809558841393 22.894334725310056 1.5902773407317584e-15 -3.4483642953516866e-32 -2.4848083448933726e-15
-1.7999999523162842 13.40000057220459 18.5 -5.62330639517417 3.3297263169280193 -29.53842149354193 5.406136902434031e-07 3.805681924167779e-07 -21.614918654611554 159.14452033463502 -7.096053388396242 -126.75578873334946 1.2973574902565112e-06 1.9385916769254572e-07 76.18759146308298 0.0 0.0 0.0 -151.14536556723294 11.90768309747179 -167.75897998247888 -1.3994173546967925e-06 1.1068272639770646e-06 -96.10274726298609 7.951386703658794e-16 0.0 0.0 17.24309903806153 3.3440363146523597 -60.177061628301416 -4.341600259371248 10.985530444116078 -32.54838526546019 2.758691436281349e-33 1.5902773407317582e-15 -1.9878466759146977e-16 2.310923911787731 -17.651703159030355 -22.629130023698494 -8.982152461158554 7.451772945982299 24.515096881809228 1.5902773407317584e-15 -4.62080815577126e-32 -3.3296431821571193e-15
-2.0 13.600000381469727 17.899999618530273 -5.640549742938217 3.3398803900134886 -25.099580068800265 5.084680918406087e-07 -1.3619557769888814e-07 -17.242262164592372 159.43319447083476 -6.386003057593227 -126.64957059990631 1.1235143424920891e-06 -6.556937594008422e-07 75.73335680140772 -1.5902773407317584e-15 3.1805546814635168e-15 4.4139062980501586e-32 -151.29018769765003 12.01394019602921 -168.22536712606896 1.966337959888937e-06 -1.0267016774184344e-06 -95.86160687533022 -1.5902773407317584e-15 3.0811623476677818e-15 4.275971726236091e-32 18.147211718510302 1.1650630867770313 -58.27358388570859 -4.244588896673104 10.786446206106223 -35.05224569941132 0.0 0.0 -4.174478019420865e-15 1.593004522754698 -17.143320629971246 -21.588822247613685 -9.186171860262654 7.293452569925633 26.716140341776992 -1.5902773407317588e-15 -1.517280289954742e-32 1.093315671753084e-15
-2.0999999046325684 13.600000381469727 17.600000381469727 -5.273895982142791 3.1566752294221856 -23.696702272409688 1.8006526938282767e-07 3.2534216431987743e-07 -11.491978796269212 159.02493583048107 -4.887431714305563 -127.61785005385566 -1.3378586492870875e-07 -8.765538823641131e-07 75.69663148097412 0.0 0.0 -1.5902773407317584e-15 -151.14546176454152 12.26271213222667 -170.89687017892786 9.55454527629587e-07 7.476656945801895e-08 -95.33757407773821 1.7655625192200634e-31 3.1805546814635168e-15 -6.3611093629270335e-15 17.760739588832692 0.7410715187528916 -54.63216104943498 -3.1893343234585747 10.884083936963666 -36.563717561249035 -4.770832022195274e-15 -1.73797560485725e-31 4.174478019420865e-15 0.8174374737504351 -16.985312314009246 -21.24895140774296 -9.113962836739304 7.394378229053288 28.776820606199863 1.43107118257095e-32 -3.975693351829396e-16 4.1247818525229985e-15
-2.4000000953674316 13.699999809265137 17.200000762939453 -5.099042432397315 2.982450836594789 -22.696370764982632 1.227515604172035e-07 -7.952176457696611e-08 -6.35422009802994 159.25369910412613 -3.7058344646424906 -128.29628610257308 -7.339536233986112e-07 3.103186366885173e-06 75.2547064775371 0.0 0.0 0.0 -150.945804379453 12.29275296367723 -173.87594055555059 2.069786719461708e-06 1.2065603451560887e-06 -95.13508719628396 -1.7103886904944364e-31 3.0811623476677818e-15 6.3611093629270335e-15 17.440412827402923 0.7676852171338174 -50.921541656696846 -1.743555925753 10.614927857165533 -36.31415171627885 1.5902773407317584e-15 -3.310429723537619e-32 -2.3854160110976376e-15 0.22524832426626515 -16.780829116228805 -21.515776846308324 -9.09191948785615 7.409264887927491 32.63749262917187 0.0 3.975693351829395e-16 0.0
-2.6000001430511475 13.799999237060547 17.0 -4.749051719545473 2.282753231860328 -22.043909358412677 -3.166820334639414e-07 -3.939495973497701e-08 -2.453994587570391 159.04636800512358 -3.26917064735315 -130.1161234521269 2.28787933671485e-06 -3.1294378222260865e-06 75.91723589833046 0.0 3.1805546814635168e-15 0.0 -151.48371649347933 11.532893467392855 -177.29466227298462 -4.566639030955438e-07 5.528098454140289e-07 -94.76789454021748 0.0 0.0 6.361109362927032e-15 16.643606810391393 1.259174765789468 -47.61853483613287 -0.3791692810888238 10.45748629552791 -37.0050723978674 7.951386703658791e-16 -1.5902773407317582e-15 3.9756933518293955e-16 -0.6011416767041127 -16.104239975022203 -21.97493739793091 -9.059032027973675 7.2164678954890515 34.622009086638016 0.0 0.0 -1.490885006936024e-16
